<?xml version="1.0" encoding="UTF-8" standalone="no"?>
<!-- Created with Inkscape (http://www.inkscape.org/) -->

<svg
   width="210mm"
   height="297mm"
   viewBox="0 0 210 297"
   version="1.1"
   id="svg1"
   xml:space="preserve"
   inkscape:version="1.3.2 (091e20e, 2023-11-25, custom)"
   sodipodi:docname="logo.svg"
   xmlns:inkscape="http://www.inkscape.org/namespaces/inkscape"
   xmlns:sodipodi="http://sodipodi.sourceforge.net/DTD/sodipodi-0.dtd"
   xmlns="http://www.w3.org/2000/svg"
   xmlns:svg="http://www.w3.org/2000/svg"><sodipodi:namedview
     id="namedview1"
     pagecolor="#ffffff"
     bordercolor="#000000"
     borderopacity="0.25"
     inkscape:showpageshadow="2"
     inkscape:pageopacity="0.0"
     inkscape:pagecheckerboard="0"
     inkscape:deskcolor="#d1d1d1"
     inkscape:document-units="mm"
     inkscape:zoom="2.0899411"
     inkscape:cx="455.75448"
     inkscape:cy="279.19447"
     inkscape:window-width="2560"
     inkscape:window-height="1369"
     inkscape:window-x="-8"
     inkscape:window-y="-8"
     inkscape:window-maximized="1"
     inkscape:current-layer="layer1" /><defs
     id="defs1" /><g
     inkscape:label="Camada 1"
     inkscape:groupmode="layer"
     id="layer1"><path
       style="fill:#000000"
       d="m 74.532482,78.467533 c 0,-0.71016 0.117077,-1.05834 0.355868,-1.05834 0.55452,0 1.231632,-0.89803 1.231632,-1.63347 0,-0.67767 -0.715959,-1.54153 -1.277605,-1.54153 -0.190895,0 -0.309895,-0.4572 -0.309895,-1.19062 0,-0.85549 0.106393,-1.19063 0.377976,-1.19063 0.625364,0 1.209524,-0.78178 1.209524,-1.6187 0,-0.59749 -0.190853,-0.89576 -0.792078,-1.23787 -0.642991,-0.36589 -0.792077,-0.62502 -0.792077,-1.37676 0,-0.75174 0.149086,-1.01088 0.792077,-1.37676 0.601225,-0.34211 0.792078,-0.64038 0.792078,-1.23787 0,-0.83692 -0.58416,-1.6187 -1.209524,-1.6187 -0.285582,0 -0.377976,-0.38806 -0.377976,-1.5875 v -1.5875 l 0.859895,-0.003 c 1.224614,-0.004 3.37839,-1.08131 4.556195,-2.27966 1.487407,-1.51336 2.095166,-3.04295 2.089326,-5.25838 -0.006,-2.27715 -0.464176,-3.40299 -2.093962,-5.14537 -1.252656,-1.33919 -3.351298,-2.39525 -4.759921,-2.39525 -0.6098,0 -0.651426,-0.089 -0.64986,-1.38907 0.0015,-1.26521 0.07229,-1.42924 0.793749,-1.83977 0.649121,-0.36937 0.792078,-0.6223 0.792078,-1.40137 0,-0.77908 -0.142957,-1.032 -0.792078,-1.40137 -0.658093,-0.37447 -0.79236,-0.61855 -0.793749,-1.4429 -0.0011,-0.65557 0.119061,-0.99219 0.354195,-0.99219 0.55452,0 1.231632,-0.89803 1.231632,-1.63347 0,-0.67767 -0.715959,-1.54153 -1.277605,-1.54153 -0.190895,0 -0.309895,-0.4572 -0.309895,-1.19062 0,-0.85549 0.106393,-1.19063 0.377976,-1.19063 0.625364,0 1.209524,-0.78178 1.209524,-1.6187 0,-0.59749 -0.190853,-0.89576 -0.792078,-1.23788 -0.658093,-0.37447 -0.79236,-0.61854 -0.793749,-1.4429 l -0.0017,-0.99219 h 50.667705 50.66771 v 0.92978 c 0,0.71371 -0.1985,1.10713 -0.85424,1.69303 -0.76282,0.68158 -0.82613,0.84398 -0.59157,1.51762 0.14446,0.4149 0.52886,0.8719 0.85423,1.01554 0.47902,0.21149 0.59158,0.47578 0.59158,1.38907 0,0.81835 -0.10724,1.12788 -0.39078,1.12788 -0.21492,0 -0.58524,0.29679 -0.82291,0.65953 -0.55884,0.85289 -0.30198,1.90983 0.55953,2.30236 0.52197,0.23782 0.65416,0.49327 0.65416,1.26416 0,0.76665 -0.16387,1.08726 -0.79375,1.55295 -1.0488,0.77541 -1.0488,1.68951 0,2.46492 0.70867,0.52395 0.79375,0.73748 0.79375,1.9923 0,1.1823 -0.0764,1.40545 -0.48115,1.40545 -2.23284,0 -5.08164,1.95663 -6.24353,4.28823 -0.88676,1.7795 -0.94477,4.5007 -0.1342,6.2951 1.05017,2.32481 3.3124,4.08374 5.66741,4.40653 l 1.19147,0.16331 v 1.4888 c 0,1.28689 -0.0802,1.52422 -0.59158,1.74997 -0.32537,0.14365 -0.70977,0.60064 -0.85423,1.01555 -0.23456,0.67363 -0.17125,0.83604 0.59157,1.51762 1.1592,1.03574 1.1592,2.0932 0,3.12894 -0.76282,0.68158 -0.82613,0.84398 -0.59157,1.51762 0.14446,0.4149 0.52886,0.8719 0.85423,1.01555 0.47902,0.21148 0.59158,0.47577 0.59158,1.38906 0,0.81835 -0.10724,1.12788 -0.39078,1.12788 -0.21492,0 -0.58524,0.29679 -0.82291,0.65953 -0.55884,0.85289 -0.30198,1.90983 0.55953,2.30236 0.53049,0.2417 0.65416,0.49011 0.65416,1.31391 v 1.01587 H 125.20018 74.532482 Z M 157.61164,52.670653 V 33.488363 H 122.28977 86.967898 v 19.18229 19.18229 h 35.321872 35.32187 z m -67.997909,-0.13333 v -16.66978 l 32.742179,0.0672 32.74219,0.0672 0.0681,16.60261 0.0681,16.6026 H 122.42405 89.613731 Z"
       id="path1"
       sodipodi:nodetypes="sssssssssssssccsssscsssssssssssccccsssssssssssssssscsssssssssssscccscccccccccccccccccc"
       inkscape:export-filename="logo.svg"
       inkscape:export-xdpi="125.30763"
       inkscape:export-ydpi="125.30763" /><text
       xml:space="preserve"
       style="font-size:19.4805px;font-family:Arial;-inkscape-font-specification:Arial;text-align:center;text-anchor:middle;fill:#ffffff;fill-opacity:1;stroke-width:5.52201"
       x="118.16181"
       y="52.307156"
       id="text1"><tspan
         sodipodi:role="line"
         id="tspan1"
         x="118.16181"
         y="52.307156"
         style="font-style:normal;font-variant:normal;font-weight:normal;font-stretch:normal;font-family:'Pervitina Dex';-inkscape-font-specification:'Pervitina Dex';fill:#ffffff;fill-opacity:1;stroke-width:5.52204">Ticket</tspan></text><text
       xml:space="preserve"
       style="font-size:20.5198px;font-family:Arial;-inkscape-font-specification:Arial;text-align:center;text-anchor:middle;fill:#000000;stroke-width:5.81664"
       x="126.19315"
       y="67.940041"
       id="text2"><tspan
         sodipodi:role="line"
         id="tspan2"
         x="126.19315"
         y="67.940041"
         style="font-style:normal;font-variant:normal;font-weight:normal;font-stretch:normal;font-family:'Pervitina Dex';-inkscape-font-specification:'Pervitina Dex';fill:#ffffff;fill-opacity:1;stroke-width:5.81664">Main</tspan></text></g></svg>
